<svg xmlns="http://www.w3.org/2000/svg" version="1.1" xmlns:xlink="http://www.w3.org/1999/xlink" xmlns:svgjs="http://svgjs.dev/svgjs" width="1500" height="1500" viewBox="0 0 1500 1500"><rect width="1500" height="1500" fill="#ffd7ea"></rect><g transform="matrix(0.6666666666666666,0,0,0.6666666666666666,249.07260895170793,310.58709677419347)"><svg viewBox="0 0 283 248" data-background-color="#ffd7ea" preserveAspectRatio="xMidYMid meet" height="1314" width="1500" xmlns="http://www.w3.org/2000/svg" xmlns:xlink="http://www.w3.org/1999/xlink"><g id="tight-bounds" transform="matrix(1,0,0,1,0.26245166666666364,0.4000000000000057)"><svg viewBox="0 0 282.4750966666667 247.2" height="247.2" width="282.4750966666667"><g><svg viewBox="0 0 282.4750966666667 247.2" height="247.2" width="282.4750966666667"><g><svg viewBox="0 0 282.4750966666667 247.2" height="247.2" width="282.4750966666667"><g id="textblocktransform"><svg viewBox="0 0 282.4750966666667 247.2" height="247.2" width="282.4750966666667" id="textblock"><g><svg viewBox="0 0 282.4750966666667 247.2" height="247.2" width="282.4750966666667"><rect width="282.4750966666667" height="247.2" x="0" y="0" opacity="1" fill="#f70f03" data-fill-palette-color="tertiary"></rect><g transform="matrix(1,0,0,1,23.607599999999998,23.607599999999998)"><svg width="235.25989666666666" viewBox="2.44 -35.16 41.36 35.16" height="199.9848" data-palette-color="#ffd7ea"><path d="M2.44 0L2.44 0Q2.59-0.61 2.7-1.48 2.81-2.34 2.81-3.27L2.81-3.27Q2.81-4.13 2.69-4.94 2.56-5.76 2.44-6.35L2.44-6.35Q3.54-6.35 4.37-6.52 5.2-6.69 5.76-7.09 6.32-7.5 6.6-8.19 6.88-8.89 6.88-9.94L6.88-9.94Q6.88-11.99 6.77-13.45 6.67-14.92 6.46-15.87 6.25-16.82 5.93-17.32 5.62-17.82 5.2-17.94L5.2-17.94Q5.64-18.09 5.96-18.47 6.27-18.85 6.48-19.7 6.69-20.56 6.79-21.98 6.88-23.41 6.88-25.66L6.88-25.66Q6.88-26.64 6.57-27.25 6.25-27.86 5.71-28.21 5.18-28.56 4.46-28.69 3.74-28.81 2.91-28.81L2.91-28.81 2.44-28.81Q2.56-29.39 2.69-30.16 2.81-30.93 2.81-31.79L2.81-31.79Q2.81-32.69 2.7-33.62 2.59-34.55 2.44-35.16L2.44-35.16Q2.91-34.99 3.91-34.84 4.91-34.69 6.2-34.57 7.5-34.45 8.95-34.38 10.4-34.3 11.79-34.3L11.79-34.3Q13.21-34.3 14.66-34.38 16.11-34.45 17.4-34.57 18.68-34.69 19.65-34.84 20.63-34.99 21.12-35.16L21.12-35.16Q20.97-34.55 20.86-33.62 20.75-32.69 20.75-31.79L20.75-31.79Q20.75-30.93 20.87-30.16 21-29.39 21.12-28.81L21.12-28.81 20.61-28.81Q19.73-28.81 18.99-28.69 18.26-28.56 17.75-28.21 17.24-27.86 16.96-27.25 16.67-26.64 16.67-25.66L16.67-25.66Q16.67-23.9 16.74-22.67 16.8-21.44 16.92-20.58L16.92-20.58Q17.46-20.41 18.24-20.41L18.24-20.41Q18.68-20.41 19.15-20.41 19.63-20.41 20.19-20.43 20.75-20.46 21.45-20.47 22.14-20.48 23.05-20.53L23.05-20.53Q24.34-21.31 25.4-22.29 26.46-23.27 27.21-24.21 27.95-25.15 28.37-25.95 28.78-26.76 28.78-27.2L28.78-27.2Q28.78-27.69 28.64-28 28.49-28.32 28.11-28.5 27.73-28.69 27.05-28.75 26.37-28.81 25.32-28.81L25.32-28.81Q25.51-29.39 25.6-30.29 25.68-31.18 25.68-31.93L25.68-31.93Q25.68-32.74 25.59-33.64 25.49-34.55 25.27-35.16L25.27-35.16Q25.76-34.94 26.76-34.78 27.76-34.62 28.99-34.51 30.22-34.4 31.59-34.35 32.96-34.3 34.18-34.3L34.18-34.3Q35.25-34.3 36.45-34.38 37.65-34.45 38.76-34.58 39.87-34.72 40.8-34.86 41.72-35.01 42.29-35.16L42.29-35.16Q42.14-34.86 42.07-34.44 41.99-34.01 41.96-33.53 41.92-33.06 41.92-32.57 41.92-32.08 41.92-31.69L41.92-31.69Q41.92-30.93 42-30.16 42.09-29.39 42.29-28.81L42.29-28.81Q41.24-28.81 40.31-28.43 39.38-28.05 38.61-27.44 37.84-26.83 37.23-26.04 36.62-25.24 36.21-24.4 35.79-23.56 35.57-22.74 35.35-21.92 35.35-21.26L35.35-21.26Q34.62-21.09 33.86-20.78 33.11-20.46 32.37-20.07 31.64-19.68 30.96-19.21 30.27-18.75 29.71-18.29L29.71-18.29Q30.49-17.5 31.76-16.8 33.03-16.09 34.36-15.54 35.69-14.99 36.88-14.66 38.06-14.33 38.7-14.33L38.7-14.33Q38.55-13.6 38.55-12.87L38.55-12.87Q38.55-11.57 38.95-10.39 39.36-9.2 40.06-8.31 40.77-7.42 41.72-6.88 42.68-6.35 43.77-6.35L43.77-6.35Q43.58-5.76 43.54-4.94 43.51-4.13 43.51-3.27L43.51-3.27Q43.51-2.34 43.54-1.48 43.58-0.61 43.8 0L43.8 0Q43.55-0.1 42.75-0.21 41.94-0.32 40.91-0.4 39.87-0.49 38.77-0.55 37.67-0.61 36.82-0.61L36.82-0.61Q36.23-0.61 35.44-0.6 34.64-0.59 33.75-0.56 32.86-0.54 31.96-0.5 31.05-0.46 30.26-0.39 29.47-0.32 28.86-0.22 28.25-0.12 27.95 0L27.95 0Q28.22-0.51 28.34-1.18 28.47-1.86 28.47-2.56L28.47-2.56Q28.47-3.71 28.19-4.77 27.91-5.83 27.42-6.35L27.42-6.35Q28.05-6.71 28.43-7.14 28.81-7.57 29-8.06 29.2-8.54 29.26-9.13 29.32-9.72 29.32-10.38L29.32-10.38Q29.32-11.35 28.69-12.34 28.05-13.33 27.03-14.1 26-14.87 24.72-15.36 23.44-15.84 22.12-15.84L22.12-15.84Q21.8-15.84 21.4-15.86 21-15.87 20.51-15.87L20.51-15.87Q19.68-15.87 18.75-15.76 17.82-15.65 16.97-15.28L16.97-15.28Q16.67-13.4 16.67-9.94L16.67-9.94Q16.67-8.89 16.91-8.19 17.14-7.5 17.68-7.09 18.21-6.69 19.06-6.52 19.9-6.35 21.12-6.35L21.12-6.35Q21-5.76 20.87-4.94 20.75-4.13 20.75-3.27L20.75-3.27Q20.75-2.34 20.86-1.48 20.97-0.61 21.12 0L21.12 0Q20.41-0.15 19.34-0.26 18.26-0.37 16.99-0.45 15.72-0.54 14.38-0.57 13.04-0.61 11.79-0.61L11.79-0.61Q10.55-0.61 9.19-0.57 7.84-0.54 6.57-0.45 5.3-0.37 4.21-0.26 3.13-0.15 2.44 0Z" opacity="1" transform="matrix(1,0,0,1,0,0)" fill="#ffd7ea" class="wordmark-text-0" data-fill-palette-color="quaternary" id="text-0"></path></svg></g></svg></g></svg></g></svg></g></svg></g><defs></defs></svg><rect width="282.4750966666667" height="247.2" fill="none" stroke="none" visibility="hidden"></rect></g></svg></g></svg>